<svg xmlns="http://www.w3.org/2000/svg" xmlns:xlink="http://www.w3.org/1999/xlink" version="1.1" x="0px" y="0px" viewBox="0 0 100 125" enable-background="new 0 0 100 100" xml:space="preserve"><g><path d="M69.672,50.066c0.938-2.082,0.814-4.218-0.347-6.014c-2.755-4.262-11.993-6.154-15.252,1.023l-0.088,0.353   C53.468,53.902,67.115,55.74,69.672,50.066z M67.646,45.138c0.791,1.224,0.861,2.644,0.202,4.106   c-1.662,3.69-12.04,2.509-11.874-3.511C58.682,40.176,65.804,42.287,67.646,45.138z"/><path d="M46.015,45.427l-0.088-0.353c-3.259-7.177-12.497-5.285-15.252-1.023c-1.161,1.796-1.284,3.932-0.347,6.014   C32.885,55.74,46.532,53.902,46.015,45.427z M44.026,45.733c0.166,6.02-10.212,7.202-11.874,3.511   c-0.659-1.462-0.589-2.882,0.202-4.106C34.196,42.287,41.318,40.176,44.026,45.733z"/><path d="M51.653,45.778h-3.392c-0.675,0-0.675,1,0,1h3.392C52.319,46.778,52.319,45.778,51.653,45.778z"/><path d="M51.193,47.731h-2.473c-0.665,0-0.665,1,0,1h2.473C51.866,48.731,51.866,47.731,51.193,47.731z"/><path d="M47.917,44.825h4.081c0.649,0,0.649-1,0-1h-4.081C47.259,43.825,47.259,44.825,47.917,44.825z"/><path d="M71.995,58.877l-2.354-4.737c-0.6-1.204-2.391-0.314-1.791,0.891l1.423,2.865l-15.082-3.329   c-1.687-3.953-6.697-3.95-8.382,0l-15.083,3.329l1.423-2.865c0.593-1.194-1.198-2.084-1.791-0.891l-2.354,4.737   c-0.125,0.251-0.136,0.522-0.038,0.789c0.003,0.009,0.001,0.019,0.004,0.027L33.03,72.35c-0.46,0.444-0.749,1.064-0.749,1.753   c0,2.682,3.601,3.353,4.663,1h26.111c1.139,2.521,4.663,1.49,4.663-1c0-0.688-0.289-1.309-0.748-1.753l5.058-12.656   c0.003-0.009,0.001-0.018,0.004-0.026C72.116,59.441,72.12,59.129,71.995,58.877z M63.056,73.103H36.944   c-0.022-0.051-0.053-0.097-0.079-0.146l9.986-12.964c0.025-0.033,0.036-0.074,0.057-0.11h6.185c0.021,0.036,0.031,0.077,0.057,0.11   l9.985,12.964C63.108,73.006,63.078,73.052,63.056,73.103z M52.959,58.883h-5.917C46.978,51.854,53.023,51.854,52.959,58.883z    M45.211,56.746c-0.153,0.969-0.175,1.835-0.165,2.313l-9.762,12.673c-0.119-0.028-0.243-0.042-0.368-0.052l-4.65-11.636   L45.211,56.746z M33.281,74.103c0-1.899,2.883-1.899,2.883,0C36.164,76.05,33.281,76.05,33.281,74.103z M63.836,74.103   c0-1.951,2.883-1.951,2.883,0C66.719,76.072,63.836,76.072,63.836,74.103z M65.084,71.681c-0.126,0.01-0.249,0.023-0.369,0.052   l-9.76-12.673c0.01-0.479-0.013-1.345-0.166-2.313l14.945,3.299L65.084,71.681z"/><path d="M52.857,71.122v-7.619c0-0.666-1-0.666-1,0v7.619h-3.715v-7.619c0-0.668-1-0.668-1,0v7.619H44.67v-3.329   c0-0.659-1-0.659-1,0v3.329l-2.102-0.033c0.382-0.557-0.44-1.121-0.824-0.566l-0.561,0.816c-0.226,0.333,0.025,0.779,0.411,0.783   c0,0,0,0,0.001,0c0,0,0,0,0,0l0,0h18.809c0.26,0,0.715-0.359,0.412-0.783l-0.561-0.816c-0.376-0.545-1.2,0.02-0.824,0.566   l-2.102,0.033v-3.329c0-0.675-1-0.675-1,0v3.329H52.857z"/><path d="M86.588,75.093c-0.099-0.242-9.826-24.267-10.047-30.3c-0.716-19.588-8.038-30.558-22.38-33.52   c-1.842-2.094-6.595-1.986-8.324,0c-14.34,2.963-21.662,13.933-22.378,33.52c-0.22,6.033-9.948,30.058-10.046,30.3   c-0.145,0.358-0.071,0.768,0.19,1.053c0.238,0.259,2.658,2.55,14.815,4.041c7.596,13.265,35.382,13.592,43.167-0.002   c11.783-1.486,14.487-3.73,14.76-3.984C86.646,75.917,86.743,75.477,86.588,75.093z M73.782,36.955   c-5.048-11.598-14.916-8.638-17.987-5.229c-0.451,0.5,0.29,1.167,0.742,0.67c2.699-2.994,13.131-6.643,17.445,8.073   c-5.093-7.104-12.963-6.89-20.461-1.501V13.189C64.935,15.463,71.599,23.279,73.782,36.955z M52.521,12.466v27.15h-5.043V12.455   C48.585,11.516,51.312,11.493,52.521,12.466z M46.479,13.189v25.779c-7.583-5.451-15.391-5.569-20.461,1.501   c4.309-14.692,14.732-11.084,17.445-8.073c0.446,0.492,1.187-0.176,0.743-0.67c-3.043-3.377-12.925-6.405-17.987,5.228   C28.402,23.278,35.066,15.463,46.479,13.189z M70.834,78.262c-0.323,0.04-0.607,0.234-0.762,0.522   c-6.796,12.745-33.472,12.516-40.145,0c-0.154-0.289-0.44-0.484-0.765-0.522c-8.938-1.056-12.442-2.526-13.597-3.159   c1.617-4.03,8.979-22.642,9.814-29.371c6.203-14.652,17.871-7.017,20.946-4.357c0.182,0.156,0.414,0.242,0.653,0.242h6.043   c0.239,0,0.472-0.086,0.652-0.242c3.854-3.279,14.998-9.687,20.947,4.357c0.833,6.717,8.171,25.274,9.805,29.349   C83.196,75.734,79.616,77.194,70.834,78.262z"/><path d="M60.528,76.767H39.472c-1.023,0-1.34,1.297-0.563,1.826l10.571,7.201c0.338,0.231,0.787,0.232,1.129-0.002l10.485-7.201   C62.074,77.918,61.29,76.767,60.528,76.767z M50.041,83.756l-7.325-4.989h14.59L50.041,83.756z"/></g></svg>