<svg xmlns="http://www.w3.org/2000/svg" xmlns:xlink="http://www.w3.org/1999/xlink" version="1.1" x="0px" y="0px" viewBox="0 0 100 125" enable-background="new 0 0 100 100" xml:space="preserve"><g><path fill="#000000" d="M92.079,31.028c-0.051-0.076-0.122-0.124-0.184-0.185c-0.466-2.744-1.651-5.132-3.486-6.83   c-2.332-2.157-5.476-3.038-8.842-2.475c-1.017,0.169-2.036,0.43-3.034,0.777c-0.103,0.036-0.185,0.101-0.271,0.161   c-5.397-8.47-15.216-14.147-26.41-14.147c-11.659,0-21.824,6.157-27.058,15.212c-0.118-0.105-0.257-0.19-0.416-0.246   c-0.996-0.346-2.017-0.608-3.032-0.777c-3.373-0.564-6.512,0.318-8.843,2.475c-1.835,1.698-3.021,4.085-3.487,6.829   c-0.062,0.061-0.133,0.109-0.183,0.185c-2.12,3.239-3.082,7.362-2.709,11.61c0.344,3.941,1.826,7.632,4.176,10.393   c0.161,0.189,0.372,0.294,0.595,0.358c0.916,2.787,2.547,5.068,4.744,6.483c1.62,1.044,3.454,1.572,5.365,1.572   c1.236,0,2.508-0.222,3.774-0.669c1.289-0.455,2.545-1.066,3.733-1.818c0.002-0.002,0.003-0.004,0.006-0.004   c2.127,3.119,4.629,5.939,7.407,8.252v6.395c-1.019-0.461-1.591-0.787-1.62-0.805c-0.585-0.344-1.336-0.146-1.678,0.438   c-0.117,0.197-0.151,0.414-0.15,0.628c-0.003,0.036-0.021,0.067-0.021,0.104v8.586c0,0.123,0.037,0.236,0.071,0.348   c-0.049,0.463,0.164,0.932,0.591,1.184c0.469,0.276,8.01,4.609,18.801,4.609c5.546,0,11.951-1.145,18.693-4.573   c0.479-0.244,0.716-0.76,0.646-1.265c0.046-0.131,0.082-0.268,0.082-0.415v-8.586c0-0.677-0.549-1.226-1.227-1.226   c-0.03,0-0.056,0.016-0.086,0.017c-0.197-0.005-0.396,0.021-0.585,0.116c-0.466,0.237-0.931,0.455-1.395,0.669v-6.457   c2.778-2.36,5.279-5.223,7.392-8.387c0.872,0.478,1.772,0.886,2.692,1.21c1.268,0.447,2.539,0.67,3.775,0.67   c1.912,0,3.745-0.529,5.364-1.574c2.198-1.414,3.83-3.696,4.744-6.482c0.224-0.064,0.435-0.169,0.595-0.358   c2.352-2.762,3.835-6.453,4.176-10.392C95.161,38.39,94.198,34.266,92.079,31.028z M6.567,43.405   c-0.171-1.958-0.013-3.875,0.436-5.661l0.975,11.14C7.229,47.201,6.736,45.344,6.567,43.405z M52.905,10.939   c14.21,1.438,25.312,12.791,25.312,26.541c0,1.11-0.078,2.244-0.216,3.389c-0.206,0.104-0.425,0.148-0.684,0.125   c-3.105-0.305-8.339-8.127-11.801-13.304c-1.898-2.837-3.537-5.289-4.716-6.466c-2.686-2.687-5.729-2.358-7.896-1.363V10.939z    M46.799,10.939v8.921c-2.168-0.996-5.212-1.324-7.898,1.363c-1.178,1.177-2.816,3.629-4.715,6.466   c-3.461,5.177-8.693,12.999-11.801,13.304c-0.249,0.025-0.47-0.021-0.68-0.126c-0.138-1.145-0.216-2.277-0.216-3.387   C21.489,23.73,32.59,12.377,46.799,10.939z M21.962,59.443c-2.49,0.879-4.976,0.647-6.993-0.652   c-2.467-1.59-4.066-4.627-4.392-8.333L9.291,35.763c-0.324-3.708,0.725-6.976,2.879-8.969c1.762-1.631,4.165-2.287,6.774-1.856   c0.879,0.146,1.765,0.374,2.63,0.674c0.043,0.016,0.089,0.008,0.133,0.018c-1.711,3.624-2.671,7.631-2.671,11.85   c0,1.196,0.081,2.412,0.223,3.637c-0.083,0.307-0.045,0.626,0.113,0.909c0.768,5.378,2.827,10.905,5.817,15.847   C24.158,58.521,23.073,59.051,21.962,59.443z M66.888,76.711v6.495c-16.481,8.04-31.035,1.53-33.978,0.032v-6.406   c2.921,1.354,9.06,3.668,16.952,3.668C54.947,80.5,60.76,79.514,66.888,76.711z M36.379,75.574v-5.536   c4.105,2.811,8.688,4.511,13.474,4.511c4.89,0,9.569-1.778,13.742-4.701v5.597C52.04,79.873,41.795,77.546,36.379,75.574z    M49.853,72.096c-13.104,0-24.944-14.754-27.74-28.654c0.042,0.001,0.083,0.012,0.126,0.012c0.128,0,0.257-0.006,0.387-0.019   c3.946-0.388,8.309-6.47,13.6-14.381c1.751-2.617,3.403-5.088,4.411-6.096c2.956-2.955,6.215-0.263,6.574,0.049   c0.361,0.321,0.877,0.399,1.317,0.202s0.724-0.635,0.724-1.118V10.796c0.201-0.003,0.399-0.014,0.602-0.014   c0.2,0,0.399,0.011,0.6,0.014V22.09c0,0.483,0.283,0.92,0.724,1.118c0.442,0.199,0.958,0.119,1.317-0.202   c0.143-0.127,3.54-3.082,6.574-0.049c1.008,1.007,2.66,3.479,4.411,6.096c5.291,7.911,9.652,13.993,13.599,14.381   c0.13,0.013,0.261,0.019,0.389,0.019c0.042,0,0.083-0.01,0.126-0.012C74.797,57.342,62.956,72.096,49.853,72.096z M89.621,34.783   l-1.286,14.695c-0.323,3.706-1.923,6.743-4.39,8.333c-2.019,1.299-4.503,1.531-6.996,0.652c-0.749-0.266-1.479-0.613-2.195-0.996   c2.859-4.838,4.832-10.21,5.578-15.444c0.156-0.28,0.193-0.596,0.114-0.899c0.142-1.227,0.224-2.445,0.224-3.643   c0-4.626-1.152-9.001-3.188-12.892c0.82-0.277,1.655-0.492,2.486-0.631c2.607-0.433,5.014,0.226,6.774,1.855   C88.897,27.806,89.946,31.075,89.621,34.783z M92.346,42.425c-0.17,1.938-0.66,3.796-1.411,5.479l0.976-11.139   C92.358,38.551,92.517,40.468,92.346,42.425z"/><path fill="#000000" d="M41.216,40.501c0.003-0.039,0.023-0.073,0.023-0.112l-0.001-2.33c-0.001-0.678-0.55-1.227-1.227-1.227   h-0.001c-0.677,0-1.227,0.55-1.227,1.228l0.001,1.779c-0.393,0.016-0.775,0.082-1.142,0.206l-1.118-1.539   c-0.398-0.548-1.165-0.669-1.713-0.271c-0.548,0.398-0.67,1.165-0.272,1.713l1.128,1.552c-0.221,0.296-0.411,0.613-0.545,0.959   l-1.654-0.538c-0.643-0.208-1.336,0.144-1.545,0.788c-0.21,0.644,0.142,1.337,0.787,1.546l2.215,0.72   c0.018,0.006,0.035,0.003,0.053,0.008c0.129,0.491,0.342,0.961,0.649,1.385c0.773,1.064,2.021,1.699,3.337,1.699   c0.872,0,1.71-0.272,2.419-0.787c1.838-1.335,2.246-3.917,0.912-5.757C41.999,41.115,41.631,40.771,41.216,40.501z M39.942,45.295   c-0.728,0.528-1.805,0.353-2.33-0.369c-0.262-0.361-0.367-0.802-0.298-1.241c0.071-0.44,0.307-0.827,0.667-1.088   c0.286-0.208,0.625-0.319,0.978-0.319c0.542,0,1.033,0.251,1.352,0.688C40.852,43.71,40.687,44.755,39.942,45.295z"/><path fill="#000000" d="M66.528,41.662l-1.682,0.547c-0.136-0.366-0.336-0.697-0.568-1.008l1.128-1.551   c0.398-0.547,0.276-1.314-0.271-1.713c-0.546-0.397-1.314-0.276-1.713,0.271l-1.119,1.539c-0.351-0.119-0.717-0.181-1.091-0.202   l0.001-1.746c0-0.678-0.549-1.227-1.227-1.228c-0.678,0-1.227,0.549-1.227,1.227l-0.002,2.329c0,0.019,0.011,0.034,0.012,0.052   c-0.43,0.274-0.813,0.625-1.118,1.046c-1.335,1.838-0.926,4.42,0.911,5.756c0.709,0.515,1.545,0.787,2.419,0.787   c1.314,0,2.563-0.635,3.337-1.699c0.297-0.409,0.503-0.863,0.634-1.337c0.04-0.009,0.079-0.006,0.12-0.019l2.215-0.721   c0.644-0.209,0.997-0.901,0.787-1.546C67.864,41.805,67.176,41.451,66.528,41.662z M62.334,44.628   c-0.521,0.716-1.611,0.893-2.329,0.371c-0.743-0.541-0.909-1.586-0.369-2.331c0.317-0.437,0.81-0.687,1.352-0.687   c0.352,0,0.69,0.11,0.978,0.319c0.361,0.262,0.597,0.648,0.668,1.088C62.702,43.828,62.597,44.268,62.334,44.628z"/></g></svg>